ffmpeg started on 2026-03-22 at 17:19:15
Report written to "D:\Convert\FFMetrics\reports\ssim_report-6.txt"
Log level: 32
Command line:
ffmpeg -hide_banner -nostdin -r 24000/1001 -i "F:\\Convert\\files\\[DC] Make Heroine ga Oosugiru - 07_Telegram_HEVC(234).mkv" -r 24000/1001 -i "F:\\Convert\\files\\[DC] Make Heroine ga Oosugiru - 07_Telegram.mp4" -lavfi "[0:v]settb=AVTB,setpts=PTS-STARTPTS,format=pix_fmts=yuv420p10le,fps=24000/1001,scale=1920:1080:flags=lanczos:param0=3:out_range=limited:out_color_matrix=bt709:out_chroma_loc=left,setsar=1/1,setdar=(1920/1080)*(1/1),colorspace=format=yuv420p10:range=tv:primaries=bt709:trc=bt709:space=bt709:fast=0[main];[1:v]settb=AVTB,setpts=PTS-STARTPTS,format=pix_fmts=yuv420p,fps=24000/1001,scale=1920:1080:flags=lanczos:param0=3:out_range=limited:out_color_matrix=bt709:out_chroma_loc=left,setsar=1.000,setdar=1.778,colorspace=format=yuv420p:range=tv:primaries=bt709:trc=bt709:space=bt709:fast=0[ref];[main][ref]ssim=eof_action=endall:stats_file='D\\:/Convert/FFMetrics/logs/ssim_logfile-6.txt'" -f null -
Input #0, matroska,webm, from 'F:\Convert\files\[DC] Make Heroine ga Oosugiru - 07_Telegram_HEVC(234).mkv':
  Metadata:
    COMPATIBLE_BRANDS: isomiso2avc1mp41
    MAJOR_BRAND     : isom
    MINOR_VERSION   : 512
    ENCODER         : Lavf61.7.100
  Duration: 00:24:06.79, start: -0.021000, bitrate: 980 kb/s
  Stream #0:0: Video: hevc (Main 10), yuv420p10le(tv, bt709, progressive), 1920x1080 [SAR 1:1 DAR 16:9], 23.98 fps, 23.98 tbr, 1k tbn (default)
      Metadata:
        HANDLER_NAME    : VideoHandler
        VENDOR_ID       : [0][0][0][0]
        ENCODER         : Lavc61.19.100 libx265
        BPS             : 783527
        DURATION        : 00:24:06.569708333
        NUMBER_OF_FRAMES: 34683
        NUMBER_OF_BYTES : 141678300
        _STATISTICS_WRITING_APP: mkvpropedit v94.0 ('Initiate') 64-bit
        _STATISTICS_WRITING_DATE_UTC: 2026-03-21 13:56:18
        _STATISTICS_TAGS: BPS DURATION NUMBER_OF_FRAMES NUMBER_OF_BYTES
  Stream #0:1: Audio: aac (LC), 48000 Hz, stereo, fltp (default)
      Metadata:
        HANDLER_NAME    : SoundHandler
        VENDOR_ID       : [0][0][0][0]
        ENCODER         : Lavc61.19.100 aac
        BPS             : 193194
        DURATION        : 00:24:06.784000000
        NUMBER_OF_FRAMES: 67819
        NUMBER_OF_BYTES : 34938755
        _STATISTICS_WRITING_APP: mkvpropedit v94.0 ('Initiate') 64-bit
        _STATISTICS_WRITING_DATE_UTC: 2026-03-21 13:56:18
        _STATISTICS_TAGS: BPS DURATION NUMBER_OF_FRAMES NUMBER_OF_BYTES
Input #1, mov,mp4,m4a,3gp,3g2,mj2, from 'F:\Convert\files\[DC] Make Heroine ga Oosugiru - 07_Telegram.mp4':
  Metadata:
    major_brand     : isom
    minor_version   : 512
    compatible_brands: isomiso2avc1mp41
    encoder         : Lavf60.16.100
  Duration: 00:24:06.74, start: 0.000000, bitrate: 3764 kb/s
  Stream #1:0[0x1](und): Video: h264 (High) (avc1 / 0x31637661), yuv420p(tv, bt709, progressive), 1920x1080 [SAR 1:1 DAR 16:9], 3616 kb/s, 23.98 fps, 23.98 tbr, 24k tbn (default)
      Metadata:
        handler_name    : VideoHandler
        vendor_id       : [0][0][0][0]
        encoder         : Lavc60.31.102 h264_qsv
  Stream #1:1[0x2](und): Audio: aac (HE-AACv2) (mp4a / 0x6134706D), 48000 Hz, stereo, fltp, 144 kb/s (default)
      Metadata:
        handler_name    : SoundHandler
        vendor_id       : [0][0][0][0]
Stream mapping:
  Stream #0:0 (hevc) -> settb:default
  Stream #1:0 (h264) -> settb:default
  ssim:default -> Stream #0:0 (wrapped_avframe)
  Stream #0:1 -> #0:1 (aac (native) -> pcm_s16le (native))
Output #0, null, to 'pipe:':
  Metadata:
    COMPATIBLE_BRANDS: isomiso2avc1mp41
    MAJOR_BRAND     : isom
    MINOR_VERSION   : 512
    encoder         : Lavf61.7.100
  Stream #0:0: Video: wrapped_avframe, yuv420p10le(tv, bt709, progressive), 1920x1080 [SAR 1:1 DAR 16:9], q=2-31, 200 kb/s, 23.98 fps, 23.98 tbn
      Metadata:
        encoder         : Lavc61.19.100 wrapped_avframe
  Stream #0:1: Audio: pcm_s16le, 48000 Hz, stereo, s16, 1536 kb/s (default)
      Metadata:
        HANDLER_NAME    : SoundHandler
        VENDOR_ID       : [0][0][0][0]
        _STATISTICS_TAGS: BPS DURATION NUMBER_OF_FRAMES NUMBER_OF_BYTES
        BPS             : 193194
        DURATION        : 00:24:06.784000000
        NUMBER_OF_FRAMES: 67819
        NUMBER_OF_BYTES : 34938755
        _STATISTICS_WRITING_APP: mkvpropedit v94.0 ('Initiate') 64-bit
        _STATISTICS_WRITING_DATE_UTC: 2026-03-21 13:56:18
        encoder         : Lavc61.19.100 pcm_s16le
frame=  117 fps=0.0 q=-0.0 size=N/A time=00:00:04.87 bitrate=N/A speed=9.45x    frame=  296 fps=288 q=-0.0 size=N/A time=00:00:12.34 bitrate=N/A speed=  12x    frame=  481 fps=312 q=-0.0 size=N/A time=00:00:20.06 bitrate=N/A speed=  13x    frame=  675 fps=327 q=-0.0 size=N/A time=00:00:28.15 bitrate=N/A speed=13.6x    frame=  861 fps=334 q=-0.0 size=N/A time=00:00:35.91 bitrate=N/A speed=13.9x    frame=  994 fps=322 q=-0.0 size=N/A time=00:00:41.45 bitrate=N/A speed=13.4x    frame= 1157 fps=321 q=-0.0 size=N/A time=00:00:48.25 bitrate=N/A speed=13.4x    frame= 1322 fps=320 q=-0.0 size=N/A time=00:00:55.13 bitrate=N/A speed=13.4x    frame= 1485 fps=320 q=-0.0 size=N/A time=00:01:01.93 bitrate=N/A speed=13.3x    frame= 1627 fps=316 q=-0.0 size=N/A time=00:01:07.85 bitrate=N/A speed=13.2x    frame= 1783 fps=315 q=-0.0 size=N/A time=00:01:14.36 bitrate=N/A speed=13.1x    frame= 1954 fps=316 q=-0.0 size=N/A time=00:01:21.49 bitrate=N/A speed=13.2x    frame= 2077 fps=310 q=-0.0 size=N/A time=00:01:26.62 bitrate=N/A speed=12.9x    frame= 2218 fps=307 q=-0.0 size=N/A time=00:01:32.50 bitrate=N/A speed=12.8x    frame= 2367 fps=306 q=-0.0 size=N/A time=00:01:38.72 bitrate=N/A speed=12.8x    frame= 2503 fps=304 q=-0.0 size=N/A time=00:01:44.39 bitrate=N/A speed=12.7x    frame= 2669 fps=304 q=-0.0 size=N/A time=00:01:51.31 bitrate=N/A speed=12.7x    frame= 2846 fps=307 q=-0.0 size=N/A time=00:01:58.70 bitrate=N/A speed=12.8x    frame= 3012 fps=308 q=-0.0 size=N/A time=00:02:05.62 bitrate=N/A speed=12.8x    frame= 3200 fps=310 q=-0.0 size=N/A time=00:02:13.46 bitrate=N/A speed=12.9x    frame= 3384 fps=313 q=-0.0 size=N/A time=00:02:21.14 bitrate=N/A speed=  13x    frame= 3576 fps=315 q=-0.0 size=N/A time=00:02:29.14 bitrate=N/A speed=13.2x    frame= 3767 fps=318 q=-0.0 size=N/A time=00:02:37.11 bitrate=N/A speed=13.2x    frame= 3956 fps=320 q=-0.0 size=N/A time=00:02:44.99 bitrate=N/A speed=13.3x    frame= 4146 fps=322 q=-0.0 size=N/A time=00:02:52.92 bitrate=N/A speed=13.4x    frame= 4336 fps=324 q=-0.0 size=N/A time=00:03:00.84 bitrate=N/A speed=13.5x    frame= 4533 fps=326 q=-0.0 size=N/A time=00:03:09.06 bitrate=N/A speed=13.6x    frame= 4725 fps=327 q=-0.0 size=N/A time=00:03:17.07 bitrate=N/A speed=13.7x    frame= 4913 fps=329 q=-0.0 size=N/A time=00:03:24.91 bitrate=N/A speed=13.7x    frame= 5107 fps=330 q=-0.0 size=N/A time=00:03:33.00 bitrate=N/A speed=13.8x    frame= 5294 fps=331 q=-0.0 size=N/A time=00:03:40.80 bitrate=N/A speed=13.8x    frame= 5482 fps=332 q=-0.0 size=N/A time=00:03:48.64 bitrate=N/A speed=13.9x    frame= 5674 fps=334 q=-0.0 size=N/A time=00:03:56.65 bitrate=N/A speed=13.9x    frame= 5863 fps=334 q=-0.0 size=N/A time=00:04:04.53 bitrate=N/A speed=13.9x    frame= 6042 fps=335 q=-0.0 size=N/A time=00:04:12.00 bitrate=N/A speed=  14x    frame= 6226 fps=336 q=-0.0 size=N/A time=00:04:19.67 bitrate=N/A speed=  14x    frame= 6420 fps=336 q=-0.0 size=N/A time=00:04:27.76 bitrate=N/A speed=  14x    frame= 6611 fps=337 q=-0.0 size=N/A time=00:04:35.73 bitrate=N/A speed=14.1x    frame= 6794 fps=338 q=-0.0 size=N/A time=00:04:43.36 bitrate=N/A speed=14.1x    frame= 6978 fps=338 q=-0.0 size=N/A time=00:04:51.04 bitrate=N/A speed=14.1x    frame= 7158 fps=339 q=-0.0 size=N/A time=00:04:58.54 bitrate=N/A speed=14.1x    frame= 7337 fps=339 q=-0.0 size=N/A time=00:05:06.01 bitrate=N/A speed=14.1x    frame= 7521 fps=339 q=-0.0 size=N/A time=00:05:13.68 bitrate=N/A speed=14.2x    frame= 7704 fps=340 q=-0.0 size=N/A time=00:05:21.32 bitrate=N/A speed=14.2x    frame= 7888 fps=340 q=-0.0 size=N/A time=00:05:28.99 bitrate=N/A speed=14.2x    frame= 8073 fps=340 q=-0.0 size=N/A time=00:05:36.71 bitrate=N/A speed=14.2x    frame= 8253 fps=341 q=-0.0 size=N/A time=00:05:44.21 bitrate=N/A speed=14.2x    frame= 8441 fps=341 q=-0.0 size=N/A time=00:05:52.06 bitrate=N/A speed=14.2x    frame= 8622 fps=341 q=-0.0 size=N/A time=00:05:59.60 bitrate=N/A speed=14.2x    frame= 8808 fps=342 q=-0.0 size=N/A time=00:06:07.36 bitrate=N/A speed=14.3x    frame= 9004 fps=342 q=-0.0 size=N/A time=00:06:15.54 bitrate=N/A speed=14.3x    frame= 9200 fps=343 q=-0.0 size=N/A time=00:06:23.71 bitrate=N/A speed=14.3x    frame= 9390 fps=343 q=-0.0 size=N/A time=00:06:31.64 bitrate=N/A speed=14.3x    frame= 9583 fps=344 q=-0.0 size=N/A time=00:06:39.69 bitrate=N/A speed=14.3x    frame= 9781 fps=345 q=-0.0 size=N/A time=00:06:47.94 bitrate=N/A speed=14.4x    frame= 9970 fps=345 q=-0.0 size=N/A time=00:06:55.83 bitrate=N/A speed=14.4x    frame=10151 fps=345 q=-0.0 size=N/A time=00:07:03.38 bitrate=N/A speed=14.4x    frame=10337 fps=345 q=-0.0 size=N/A time=00:07:11.13 bitrate=N/A speed=14.4x    frame=10525 fps=346 q=-0.0 size=N/A time=00:07:18.98 bitrate=N/A speed=14.4x    frame=10714 fps=346 q=-0.0 size=N/A time=00:07:26.86 bitrate=N/A speed=14.4x    frame=10898 fps=346 q=-0.0 size=N/A time=00:07:34.53 bitrate=N/A speed=14.4x    frame=11086 fps=346 q=-0.0 size=N/A time=00:07:42.37 bitrate=N/A speed=14.5x    frame=11264 fps=347 q=-0.0 size=N/A time=00:07:49.80 bitrate=N/A speed=14.5x    frame=11465 fps=347 q=-0.0 size=N/A time=00:07:58.18 bitrate=N/A speed=14.5x    frame=11656 fps=347 q=-0.0 size=N/A time=00:08:06.15 bitrate=N/A speed=14.5x    frame=11841 fps=348 q=-0.0 size=N/A time=00:08:13.86 bitrate=N/A speed=14.5x    frame=12030 fps=348 q=-0.0 size=N/A time=00:08:21.75 bitrate=N/A speed=14.5x    frame=12221 fps=348 q=-0.0 size=N/A time=00:08:29.71 bitrate=N/A speed=14.5x    frame=12407 fps=348 q=-0.0 size=N/A time=00:08:37.47 bitrate=N/A speed=14.5x    frame=12584 fps=348 q=-0.0 size=N/A time=00:08:44.85 bitrate=N/A speed=14.5x    frame=12763 fps=348 q=-0.0 size=N/A time=00:08:52.32 bitrate=N/A speed=14.5x    frame=12951 fps=349 q=-0.0 size=N/A time=00:09:00.16 bitrate=N/A speed=14.5x    frame=13150 fps=349 q=-0.0 size=N/A time=00:09:08.46 bitrate=N/A speed=14.6x    frame=13327 fps=349 q=-0.0 size=N/A time=00:09:15.84 bitrate=N/A speed=14.6x    frame=13513 fps=349 q=-0.0 size=N/A time=00:09:23.60 bitrate=N/A speed=14.6x    frame=13706 fps=350 q=-0.0 size=N/A time=00:09:31.65 bitrate=N/A speed=14.6x    frame=13895 fps=350 q=-0.0 size=N/A time=00:09:39.53 bitrate=N/A speed=14.6x    frame=14082 fps=350 q=-0.0 size=N/A time=00:09:47.33 bitrate=N/A speed=14.6x    frame=14258 fps=350 q=-0.0 size=N/A time=00:09:54.67 bitrate=N/A speed=14.6x    frame=14451 fps=350 q=-0.0 size=N/A time=00:10:02.72 bitrate=N/A speed=14.6x    frame=14636 fps=350 q=-0.0 size=N/A time=00:10:10.44 bitrate=N/A speed=14.6x    frame=14825 fps=350 q=-0.0 size=N/A time=00:10:18.32 bitrate=N/A speed=14.6x    frame=15017 fps=351 q=-0.0 size=N/A time=00:10:26.33 bitrate=N/A speed=14.6x    frame=15177 fps=350 q=-0.0 size=N/A time=00:10:33.00 bitrate=N/A speed=14.6x    frame=15366 fps=350 q=-0.0 size=N/A time=00:10:40.89 bitrate=N/A speed=14.6x    frame=15557 fps=351 q=-0.0 size=N/A time=00:10:48.85 bitrate=N/A speed=14.6x    frame=15749 fps=351 q=-0.0 size=N/A time=00:10:56.86 bitrate=N/A speed=14.6x    frame=15935 fps=351 q=-0.0 size=N/A time=00:11:04.62 bitrate=N/A speed=14.6x    frame=16125 fps=351 q=-0.0 size=N/A time=00:11:12.54 bitrate=N/A speed=14.6x    frame=16322 fps=351 q=-0.0 size=N/A time=00:11:20.76 bitrate=N/A speed=14.7x    frame=16508 fps=352 q=-0.0 size=N/A time=00:11:28.52 bitrate=N/A speed=14.7x    frame=16694 fps=352 q=-0.0 size=N/A time=00:11:36.27 bitrate=N/A speed=14.7x    frame=16882 fps=352 q=-0.0 size=N/A time=00:11:44.12 bitrate=N/A speed=14.7x    frame=17071 fps=352 q=-0.0 size=N/A time=00:11:52.00 bitrate=N/A speed=14.7x    frame=17269 fps=352 q=-0.0 size=N/A time=00:12:00.26 bitrate=N/A speed=14.7x    frame=17453 fps=352 q=-0.0 size=N/A time=00:12:07.93 bitrate=N/A speed=14.7x    frame=17639 fps=353 q=-0.0 size=N/A time=00:12:15.69 bitrate=N/A speed=14.7x    frame=17828 fps=353 q=-0.0 size=N/A time=00:12:23.57 bitrate=N/A speed=14.7x    frame=18012 fps=353 q=-0.0 size=N/A time=00:12:31.25 bitrate=N/A speed=14.7x    frame=18198 fps=353 q=-0.0 size=N/A time=00:12:39.00 bitrate=N/A speed=14.7x    frame=18379 fps=353 q=-0.0 size=N/A time=00:12:46.55 bitrate=N/A speed=14.7x    frame=18573 fps=353 q=-0.0 size=N/A time=00:12:54.64 bitrate=N/A speed=14.7x    frame=18768 fps=353 q=-0.0 size=N/A time=00:13:02.78 bitrate=N/A speed=14.7x    frame=18958 fps=353 q=-0.0 size=N/A time=00:13:10.70 bitrate=N/A speed=14.7x    frame=19141 fps=353 q=-0.0 size=N/A time=00:13:18.33 bitrate=N/A speed=14.7x    frame=19341 fps=354 q=-0.0 size=N/A time=00:13:26.68 bitrate=N/A speed=14.7x    frame=19523 fps=354 q=-0.0 size=N/A time=00:13:34.27 bitrate=N/A speed=14.7x    frame=19716 fps=354 q=-0.0 size=N/A time=00:13:42.32 bitrate=N/A speed=14.8x    frame=19910 fps=354 q=-0.0 size=N/A time=00:13:50.41 bitrate=N/A speed=14.8x    frame=20097 fps=354 q=-0.0 size=N/A time=00:13:58.21 bitrate=N/A speed=14.8x    frame=20287 fps=354 q=-0.0 size=N/A time=00:14:06.13 bitrate=N/A speed=14.8x    frame=20475 fps=354 q=-0.0 size=N/A time=00:14:13.97 bitrate=N/A speed=14.8x    frame=20655 fps=354 q=-0.0 size=N/A time=00:14:21.48 bitrate=N/A speed=14.8x    frame=20844 fps=354 q=-0.0 size=N/A time=00:14:29.36 bitrate=N/A speed=14.8x    frame=21032 fps=354 q=-0.0 size=N/A time=00:14:37.20 bitrate=N/A speed=14.8x    frame=21223 fps=355 q=-0.0 size=N/A time=00:14:45.17 bitrate=N/A speed=14.8x    frame=21416 fps=355 q=-0.0 size=N/A time=00:14:53.22 bitrate=N/A speed=14.8x    frame=21604 fps=355 q=-0.0 size=N/A time=00:15:01.06 bitrate=N/A speed=14.8x    frame=21801 fps=355 q=-0.0 size=N/A time=00:15:09.28 bitrate=N/A speed=14.8x    frame=21992 fps=355 q=-0.0 size=N/A time=00:15:17.24 bitrate=N/A speed=14.8x    frame=22171 fps=355 q=-0.0 size=N/A time=00:15:24.71 bitrate=N/A speed=14.8x    frame=22361 fps=355 q=-0.0 size=N/A time=00:15:32.64 bitrate=N/A speed=14.8x    frame=22540 fps=355 q=-0.0 size=N/A time=00:15:40.10 bitrate=N/A speed=14.8x    frame=22730 fps=355 q=-0.0 size=N/A time=00:15:48.03 bitrate=N/A speed=14.8x    frame=22901 fps=355 q=-0.0 size=N/A time=00:15:55.16 bitrate=N/A speed=14.8x    frame=23091 fps=355 q=-0.0 size=N/A time=00:16:03.08 bitrate=N/A speed=14.8x    frame=23273 fps=355 q=-0.0 size=N/A time=00:16:10.67 bitrate=N/A speed=14.8x    frame=23456 fps=355 q=-0.0 size=N/A time=00:16:18.31 bitrate=N/A speed=14.8x    frame=23649 fps=355 q=-0.0 size=N/A time=00:16:26.36 bitrate=N/A speed=14.8x    frame=23845 fps=355 q=-0.0 size=N/A time=00:16:34.53 bitrate=N/A speed=14.8x    frame=24037 fps=356 q=-0.0 size=N/A time=00:16:42.54 bitrate=N/A speed=14.8x    frame=24217 fps=355 q=-0.0 size=N/A time=00:16:50.05 bitrate=N/A speed=14.8x    frame=24390 fps=355 q=-0.0 size=N/A time=00:16:57.26 bitrate=N/A speed=14.8x    frame=24576 fps=355 q=-0.0 size=N/A time=00:17:05.02 bitrate=N/A speed=14.8x    frame=24731 fps=355 q=-0.0 size=N/A time=00:17:11.48 bitrate=N/A speed=14.8x    frame=24912 fps=355 q=-0.0 size=N/A time=00:17:19.03 bitrate=N/A speed=14.8x    frame=25093 fps=355 q=-0.0 size=N/A time=00:17:26.58 bitrate=N/A speed=14.8x    frame=25273 fps=355 q=-0.0 size=N/A time=00:17:34.09 bitrate=N/A speed=14.8x    frame=25455 fps=355 q=-0.0 size=N/A time=00:17:41.68 bitrate=N/A speed=14.8x    frame=25643 fps=355 q=-0.0 size=N/A time=00:17:49.52 bitrate=N/A speed=14.8x    frame=25821 fps=355 q=-0.0 size=N/A time=00:17:56.95 bitrate=N/A speed=14.8x    frame=26009 fps=355 q=-0.0 size=N/A time=00:18:04.79 bitrate=N/A speed=14.8x    frame=26202 fps=355 q=-0.0 size=N/A time=00:18:12.84 bitrate=N/A speed=14.8x    frame=26385 fps=355 q=-0.0 size=N/A time=00:18:20.47 bitrate=N/A speed=14.8x    frame=26577 fps=355 q=-0.0 size=N/A time=00:18:28.48 bitrate=N/A speed=14.8x    frame=26773 fps=355 q=-0.0 size=N/A time=00:18:36.65 bitrate=N/A speed=14.8x    frame=26956 fps=355 q=-0.0 size=N/A time=00:18:44.28 bitrate=N/A speed=14.8x    frame=27129 fps=355 q=-0.0 size=N/A time=00:18:51.50 bitrate=N/A speed=14.8x    frame=27316 fps=355 q=-0.0 size=N/A time=00:18:59.30 bitrate=N/A speed=14.8x    frame=27507 fps=355 q=-0.0 size=N/A time=00:19:07.27 bitrate=N/A speed=14.8x    frame=27693 fps=355 q=-0.0 size=N/A time=00:19:15.02 bitrate=N/A speed=14.8x    frame=27875 fps=355 q=-0.0 size=N/A time=00:19:22.61 bitrate=N/A speed=14.8x    frame=28061 fps=355 q=-0.0 size=N/A time=00:19:30.37 bitrate=N/A speed=14.8x    frame=28252 fps=356 q=-0.0 size=N/A time=00:19:38.34 bitrate=N/A speed=14.8x    frame=28438 fps=356 q=-0.0 size=N/A time=00:19:46.10 bitrate=N/A speed=14.8x    frame=28631 fps=356 q=-0.0 size=N/A time=00:19:54.15 bitrate=N/A speed=14.8x    frame=28814 fps=356 q=-0.0 size=N/A time=00:20:01.78 bitrate=N/A speed=14.8x    frame=28992 fps=356 q=-0.0 size=N/A time=00:20:09.20 bitrate=N/A speed=14.8x    frame=29167 fps=355 q=-0.0 size=N/A time=00:20:16.50 bitrate=N/A speed=14.8x    frame=29343 fps=355 q=-0.0 size=N/A time=00:20:23.84 bitrate=N/A speed=14.8x    frame=29515 fps=355 q=-0.0 size=N/A time=00:20:31.02 bitrate=N/A speed=14.8x    frame=29694 fps=355 q=-0.0 size=N/A time=00:20:38.48 bitrate=N/A speed=14.8x    frame=29869 fps=355 q=-0.0 size=N/A time=00:20:45.78 bitrate=N/A speed=14.8x    frame=30038 fps=355 q=-0.0 size=N/A time=00:20:52.83 bitrate=N/A speed=14.8x    frame=30227 fps=355 q=-0.0 size=N/A time=00:21:00.71 bitrate=N/A speed=14.8x    frame=30404 fps=355 q=-0.0 size=N/A time=00:21:08.10 bitrate=N/A speed=14.8x    frame=30603 fps=355 q=-0.0 size=N/A time=00:21:16.40 bitrate=N/A speed=14.8x    frame=30785 fps=355 q=-0.0 size=N/A time=00:21:23.99 bitrate=N/A speed=14.8x    frame=30974 fps=355 q=-0.0 size=N/A time=00:21:31.87 bitrate=N/A speed=14.8x    frame=31159 fps=355 q=-0.0 size=N/A time=00:21:39.58 bitrate=N/A speed=14.8x    frame=31343 fps=355 q=-0.0 size=N/A time=00:21:47.26 bitrate=N/A speed=14.8x    frame=31530 fps=355 q=-0.0 size=N/A time=00:21:55.06 bitrate=N/A speed=14.8x    frame=31713 fps=355 q=-0.0 size=N/A time=00:22:02.69 bitrate=N/A speed=14.8x    frame=31897 fps=355 q=-0.0 size=N/A time=00:22:10.37 bitrate=N/A speed=14.8x    frame=32081 fps=355 q=-0.0 size=N/A time=00:22:18.04 bitrate=N/A speed=14.8x    frame=32271 fps=355 q=-0.0 size=N/A time=00:22:25.96 bitrate=N/A speed=14.8x    frame=32454 fps=355 q=-0.0 size=N/A time=00:22:33.60 bitrate=N/A speed=14.8x    frame=32634 fps=355 q=-0.0 size=N/A time=00:22:41.10 bitrate=N/A speed=14.8x    frame=32786 fps=355 q=-0.0 size=N/A time=00:22:47.44 bitrate=N/A speed=14.8x    frame=32960 fps=355 q=-0.0 size=N/A time=00:22:54.70 bitrate=N/A speed=14.8x    frame=33138 fps=355 q=-0.0 size=N/A time=00:23:02.13 bitrate=N/A speed=14.8x    frame=33321 fps=355 q=-0.0 size=N/A time=00:23:09.76 bitrate=N/A speed=14.8x    frame=33488 fps=355 q=-0.0 size=N/A time=00:23:16.72 bitrate=N/A speed=14.8x    frame=33647 fps=354 q=-0.0 size=N/A time=00:23:23.36 bitrate=N/A speed=14.8x    frame=33787 fps=354 q=-0.0 size=N/A time=00:23:29.19 bitrate=N/A speed=14.8x    frame=33920 fps=353 q=-0.0 size=N/A time=00:23:34.74 bitrate=N/A speed=14.7x    frame=34087 fps=353 q=-0.0 size=N/A time=00:23:41.71 bitrate=N/A speed=14.7x    frame=34257 fps=353 q=-0.0 size=N/A time=00:23:48.80 bitrate=N/A speed=14.7x    frame=34388 fps=353 q=-0.0 size=N/A time=00:23:54.26 bitrate=N/A speed=14.7x    frame=34552 fps=352 q=-0.0 size=N/A time=00:24:01.10 bitrate=N/A speed=14.7x    [Parsed_ssim_16 @ 000001427e158840] SSIM Y:0.994202 (22.366856) U:0.993998 (22.216826) V:0.993604 (21.940875) All:0.994068 (22.267953)
[out#0/null @ 0000014270cae740] video:14903KiB audio:271276KiB subtitle:0KiB other streams:0KiB global headers:0KiB muxing overhead: unknown
frame=34683 fps=352 q=-0.0 Lsize=N/A time=00:24:06.57 bitrate=N/A speed=14.7x    
